<svg width="900" height="680" viewBox="0 0 900 680" fill="none" xmlns="http://www.w3.org/2000/svg">
  <rect width="900" height="680" fill="#08101D"/>
  <rect x="54" y="58" width="792" height="564" rx="36" fill="#0F1B2D" stroke="#304762" stroke-width="3"/>
  <text x="86" y="122" fill="#F7F0E6" font-family="Segoe UI, Microsoft YaHei, sans-serif" font-size="32" font-weight="700">三种 Codex 远程工作站</text>
  <text x="88" y="158" fill="#AEBED2" font-family="Segoe UI, Microsoft YaHei, sans-serif" font-size="18">先用现有设备跑通，再按频率选择 Mac mini 或 VPS。</text>
  <g font-family="Segoe UI, Microsoft YaHei, sans-serif">
    <rect x="82" y="222" width="218" height="300" rx="28" fill="#13233A" stroke="#3B5677" stroke-width="2"/>
    <rect x="126" y="270" width="130" height="88" rx="12" fill="#07101B" stroke="#506C8C" stroke-width="2"/>
    <rect x="142" y="374" width="98" height="18" rx="9" fill="#304762"/>
    <rect x="116" y="396" width="150" height="18" rx="9" fill="#243650"/>
    <text x="118" y="446" fill="#FFFFFF" font-size="24" font-weight="700">家里电脑</text>
    <text x="118" y="478" fill="#AEBED2" font-size="16">零额外硬件成本</text>
    <text x="118" y="504" fill="#FFCA8A" font-size="16">适合先跑通流程</text>
    <rect x="341" y="222" width="218" height="300" rx="28" fill="#13233A" stroke="#3B5677" stroke-width="2"/>
    <rect x="394" y="300" width="112" height="72" rx="18" fill="#E9F0F8"/>
    <circle cx="450" cy="336" r="15" fill="#0F1B2D"/>
    <rect x="390" y="386" width="120" height="18" rx="9" fill="#304762"/>
    <text x="393" y="446" fill="#FFFFFF" font-size="24" font-weight="700">Mac mini</text>
    <text x="393" y="478" fill="#AEBED2" font-size="16">安静省电，长期在线</text>
    <text x="393" y="504" fill="#FFCA8A" font-size="16">适合固定工作站</text>
    <rect x="600" y="222" width="218" height="300" rx="28" fill="#13233A" stroke="#3B5677" stroke-width="2"/>
    <rect x="650" y="278" width="118" height="42" rx="12" fill="#07101B" stroke="#58A6FF" stroke-width="2"/>
    <rect x="650" y="334" width="118" height="42" rx="12" fill="#07101B" stroke="#58A6FF" stroke-width="2"/>
    <rect x="650" y="390" width="118" height="42" rx="12" fill="#07101B" stroke="#58A6FF" stroke-width="2"/>
    <circle cx="674" cy="299" r="6" fill="#9AD97B"/>
    <circle cx="674" cy="355" r="6" fill="#9AD97B"/>
    <circle cx="674" cy="411" r="6" fill="#9AD97B"/>
    <text x="664" y="466" fill="#FFFFFF" font-size="24" font-weight="700">VPS</text>
    <text x="642" y="498" fill="#AEBED2" font-size="16">SSH + Tailscale</text>
    <text x="642" y="524" fill="#FFCA8A" font-size="16">适合服务器任务</text>
  </g>
</svg>
